<svg width="32" height="32" fill="none" xmlns="http://www.w3.org/2000/svg"><path d="M16 6c-.989 0-1.956.352-2.778 1.011-.822.66-1.463 1.597-1.841 2.693a7.121 7.121 0 00-.285 3.466c.193 1.164.67 2.233 1.368 3.073.7.839 1.59 1.41 2.56 1.642.97.231 1.976.112 2.89-.342.913-.454 1.694-1.223 2.243-2.21.55-.986.843-2.146.843-3.333 0-1.591-.527-3.117-1.465-4.243C18.598 6.632 17.326 6 16 6zm0 9.6a2.659 2.659 0 01-1.667-.607c-.493-.395-.878-.957-1.105-1.615a4.273 4.273 0 01-.17-2.08 3.87 3.87 0 01.82-1.844c.42-.503.955-.846 1.537-.985a2.54 2.54 0 011.733.205c.548.273 1.017.734 1.346 1.326A4.13 4.13 0 0119 12c0 .954-.317 1.87-.88 2.544-.562.675-1.325 1.055-2.12 1.056z" fill="#333"/><path d="M16 0a16 16 0 1016 16A16.018 16.018 0 0016 0zM9.143 27.86v-1.574a3.432 3.432 0 013.428-3.429h6.858a3.432 3.432 0 013.428 3.429v1.573a13.599 13.599 0 01-13.714 0zm15.99-1.659a5.716 5.716 0 00-5.704-5.63H12.57a5.716 5.716 0 00-5.705 5.63 13.714 13.714 0 1118.269 0h-.001z" fill="#333"/></svg>