<svg width="32" height="32" fill="none" xmlns="http://www.w3.org/2000/svg"><path fill-rule="evenodd" clip-rule="evenodd" d="M32 16c0 8.836-7.164 16-16 16S0 24.836 0 16 7.164 0 16 0s16 7.164 16 16zm-15.427-4.188c-1.556.647-4.666 1.987-9.33 4.019-.758.301-1.155.596-1.191.884-.061.488.55.68 1.379.94.113.036.23.072.35.112.818.265 1.916.576 2.487.588.519.01 1.097-.203 1.736-.64 4.357-2.943 6.607-4.43 6.748-4.462.1-.022.239-.052.332.032.093.083.084.24.075.283-.062.257-2.454 2.483-3.694 3.635-.386.358-.66.613-.716.672-.125.129-.253.253-.376.372-.76.73-1.328 1.28.032 2.176.654.43 1.176.786 1.698 1.141.569.388 1.137.775 1.873 1.257.187.123.365.25.54.374.663.473 1.259.897 1.995.83.426-.04.869-.441 1.093-1.64.53-2.834 1.572-8.973 1.813-11.504a2.82 2.82 0 00-.026-.629.675.675 0 00-.23-.433c-.19-.156-.486-.19-.62-.187-.601.01-1.524.332-5.968 2.18z" fill="#333"/></svg>