<svg width="32" height="32" fill="none" xmlns="http://www.w3.org/2000/svg"><g clip-path="url(#clip0_116_1784)"><path fill-rule="evenodd" clip-rule="evenodd" d="M23.22 19.176c-.397-.199-2.345-1.156-2.708-1.29-.363-.131-.627-.197-.892.2-.264.395-1.023 1.289-1.253 1.553-.232.265-.463.297-.859.1-.396-.2-1.673-.618-3.187-1.967-1.177-1.05-1.973-2.348-2.204-2.745-.23-.396-.025-.611.174-.808.178-.178.396-.463.594-.694.199-.232.264-.397.396-.662.134-.264.067-.495-.033-.694-.099-.198-.89-2.149-1.221-2.942-.322-.772-.648-.667-.891-.68-.232-.011-.496-.014-.76-.014s-.693.099-1.056.496c-.364.396-1.387 1.355-1.387 3.306 0 1.949 1.419 3.833 1.618 4.098.198.264 2.793 4.267 6.768 5.983.946.408 1.684.652 2.258.833.95.303 1.814.26 2.496.158.76-.114 2.344-.959 2.675-1.884.33-.926.33-1.719.23-1.884-.098-.166-.362-.264-.76-.463h.002zm-7.23 9.87h-.005a13.16 13.16 0 01-6.709-1.837l-.48-.285-4.99 1.31 1.333-4.865-.314-.498a13.148 13.148 0 01-2.014-7.014C2.813 8.591 8.725 2.68 15.996 2.68c3.52 0 6.83 1.373 9.317 3.864a13.099 13.099 0 013.856 9.324c-.002 7.266-5.914 13.18-13.178 13.18zM27.208 4.652A15.754 15.754 0 0015.989 0C7.251 0 .136 7.113.133 15.856a15.819 15.819 0 002.116 7.927L0 32l8.405-2.205a15.84 15.84 0 007.579 1.93h.007c8.738 0 15.853-7.113 15.856-15.857a15.763 15.763 0 00-4.64-11.217z" fill="#333"/></g><defs><clipPath id="clip0_116_1784"><path fill="#fff" d="M0 0h32v32H0z"/></clipPath></defs></svg>